<?xml version="1.0" encoding="utf-8"?>
<!-- Generator: Adobe Illustrator 24.0.3, SVG Export Plug-In . SVG Version: 6.00 Build 0)  -->
<svg version="1.1" id="Ebene_1" xmlns="http://www.w3.org/2000/svg" xmlns:xlink="http://www.w3.org/1999/xlink" x="0px" y="0px"
	 viewBox="0 0 54.3 53.9" style="enable-background:new 0 0 54.3 53.9;" xml:space="preserve">
<style type="text/css">
	.st0{fill:#012169;}
</style>
<g>
	<path id="Glyph" class="st0" d="M40.7,53.8h13.6V27.1C54.3,12.1,42.1,0,27.1,0C12.1,0,0,12.1,0,27.1v0c0,14.6,11.5,26.7,27.1,26.7
		c0,0,3.4,0,6.8-0.9V40.7c-3.4,0.8-6.8,0.6-6.8,0.6c-7.2-0.1-13.6-6-13.6-14.2c0-7.5,6-13.6,13.6-13.6c7.4,0,13.6,6.1,13.6,13.6
		C40.7,27.2,40.7,53.8,40.7,53.8"/>
</g>
</svg>
