<svg xmlns="http://www.w3.org/2000/svg" viewBox="0 0 64 83"><defs><style>.cls-1{fill:#dc2f34;}.cls-2{fill:#fff;}.cls-3{fill:#1d1d1b;}.cls-4{fill:#004996;}.cls-5{fill:#f3d240;}.cls-6{fill:#e30613;}</style></defs><g id="Ebene_2" data-name="Ebene 2"><g id="Ebene_1-2" data-name="Ebene 1"><polygon class="cls-1" points="0.03 19.05 0.03 26.06 63.99 26.06 63.99 19.05 0.03 19.05 0.03 19.05"/><polygon class="cls-1" points="0.04 33.25 0.04 40.23 64 40.27 64 33.29 0.04 33.25 0.04 33.25"/><polygon class="cls-1" points="0 47.61 0 54.62 63.96 54.62 63.96 47.61 0 47.61 0 47.61"/><polygon class="cls-1" points="0 61.75 0 68.76 63.96 68.76 63.96 61.75 0 61.75 0 61.75"/><polygon class="cls-1" points="0.03 75.99 0.03 83 63.99 83 63.99 75.99 0.03 75.99 0.03 75.99"/><path class="cls-2" d="M32.23,26.36a1.93,1.93,0,0,0-.89.64,1,1,0,0,0-.84.43,1.07,1.07,0,0,0-.2.63.43.43,0,0,0,0,.05,1,1,0,0,0-.47.76l-.28,0a1.2,1.2,0,0,0-1.3,1.41c0,.1,0,.21,0,.32a1.33,1.33,0,0,0-.91,0,1.82,1.82,0,0,0,0-.32,1.2,1.2,0,0,0-1.31-1.41l-.28,0a1,1,0,0,0-.46-.76v-.05a1.06,1.06,0,0,0-.19-.63,1,1,0,0,0-.84-.43,2,2,0,0,0-.89-.64l-.27-.08-.27.08A2,2,0,0,0,22,27a1,1,0,0,0-.84.43,1.06,1.06,0,0,0-.19.63v.05a1,1,0,0,0-.46.76l-.28,0a1.2,1.2,0,0,0-1.3,1.41,1.94,1.94,0,0,0,0,.33,1.28,1.28,0,0,0-.48-.09,1.48,1.48,0,0,0-1.11.51,3.54,3.54,0,0,0,.11-.85,2.49,2.49,0,0,0-.08-.68,1.39,1.39,0,0,0-.59-1,1.29,1.29,0,0,0-1-.07c-.09,0-.18.06-.27.09a1,1,0,0,0-.43-.52.72.72,0,0,0-.2-.09,1.07,1.07,0,0,0-.36-.61,1,1,0,0,0-.88-.21,1.61,1.61,0,0,0-1.2-.38l-1,.11,1.36,5.26a2.74,2.74,0,0,0,1,2.33A1.92,1.92,0,0,0,14.22,37c0,.93.49,20.26.49,20.26v0A19.17,19.17,0,0,0,19.87,70.8,17.45,17.45,0,0,0,32.51,76,17.45,17.45,0,0,0,45.15,70.8,19.2,19.2,0,0,0,50.3,57.24v0S50.77,38,50.8,37a1.92,1.92,0,0,0,.74-1.53,1.82,1.82,0,0,0-.3-1,2.74,2.74,0,0,0,1-2.33c0-.17,1.36-5.26,1.36-5.26l-1-.11a1.58,1.58,0,0,0-1.19.38,1,1,0,0,0-.89.21,1,1,0,0,0-.35.61,1,1,0,0,0-.21.09,1,1,0,0,0-.43.52,2.14,2.14,0,0,0-.27-.09,1.29,1.29,0,0,0-1,.07,1.46,1.46,0,0,0-.59,1,3,3,0,0,0-.08.68,3.4,3.4,0,0,0,.14.94,1.49,1.49,0,0,0-1.19-.6,1.44,1.44,0,0,0-.46.08,1.82,1.82,0,0,0,0-.32,1.2,1.2,0,0,0-1.31-1.41l-.27,0a1,1,0,0,0-.47-.76v-.05a1.06,1.06,0,0,0-.19-.63A1,1,0,0,0,43,27a2,2,0,0,0-.89-.64l-.27-.08-.26.08a2,2,0,0,0-.9.64,1,1,0,0,0-.84.43,1.06,1.06,0,0,0-.19.63.07.07,0,0,0,0,.05,1,1,0,0,0-.47.76l-.28,0a1.2,1.2,0,0,0-1.3,1.41c0,.1,0,.21,0,.32a1.33,1.33,0,0,0-.88,0c0-.11,0-.21,0-.31a1.2,1.2,0,0,0-1.3-1.41l-.28,0a1,1,0,0,0-.47-.76.43.43,0,0,0,0-.05,1.13,1.13,0,0,0-.19-.63,1,1,0,0,0-.85-.43,1.93,1.93,0,0,0-.89-.64l-.26-.08-.27.08Z"/><path class="cls-3" d="M52.47,27.5a1,1,0,0,0-.92.5,1.37,1.37,0,0,0-.26-.12.38.38,0,0,0-.34,0c-.08.08-.12.2-.12.49,0,.1,0,.22,0,.35l-.22-.07a.42.42,0,0,0-.33,0,.28.28,0,0,0-.14.21,1,1,0,0,0,.15.68.79.79,0,0,1,.12.49.17.17,0,0,1-.24.12c-.17,0-.25-.18-.33-.32l0-.05a1.41,1.41,0,0,0-.8-.62.59.59,0,0,0-.45,0,.77.77,0,0,0-.24.49,1.86,1.86,0,0,0-.06.48,2.85,2.85,0,0,0,.31,1.25,2.4,2.4,0,0,0-.37.74,1.19,1.19,0,0,0-.05.28c0,.23.13.33.45.42a2.13,2.13,0,0,0,1.28-.21,1.05,1.05,0,0,1,.51-.14c.11,0,.11,0,.11.14,0,.39-.65.84-1.73,1.21a5,5,0,0,1-2-1.19.73.73,0,0,0,.4-.65.73.73,0,1,0-1.07.65,5.28,5.28,0,0,1-2,1.21c-1.11-.38-1.76-.84-1.76-1.23a.15.15,0,0,1,.15-.17,1.23,1.23,0,0,1,.46.26,2.07,2.07,0,0,0,1.19.53c.44,0,.56-.12.56-.57a2.55,2.55,0,0,0-.18-.81,2.62,2.62,0,0,0,.68-1.61c0-.52-.07-.65-.56-.65a1.38,1.38,0,0,0-.92.4l0,0a.54.54,0,0,1-.4.23c-.19,0-.21-.14-.21-.18a.77.77,0,0,1,.25-.44,1,1,0,0,0,.31-.63c0-.29-.19-.33-.4-.33l-.23,0a2.57,2.57,0,0,0,.15-.65.31.31,0,0,0-.05-.19.35.35,0,0,0-.31-.12,1.42,1.42,0,0,0-.3.05,1.34,1.34,0,0,0-.74-.72h-.08a1.37,1.37,0,0,0-.74.72,1.35,1.35,0,0,0-.29-.05.34.34,0,0,0-.31.12.25.25,0,0,0-.06.19,2.31,2.31,0,0,0,.16.65l-.24,0c-.2,0-.39,0-.39.33a1,1,0,0,0,.31.63.81.81,0,0,1,.24.44s0,.18-.21.18a.57.57,0,0,1-.4-.23l0,0a1.38,1.38,0,0,0-.92-.4c-.49,0-.55.13-.55.65A2.61,2.61,0,0,0,39,31.88a2.55,2.55,0,0,0-.18.81c0,.45.12.57.56.57a2,2,0,0,0,1.19-.53,1.31,1.31,0,0,1,.46-.26.15.15,0,0,1,.16.17c0,.39-.65.85-1.74,1.22a5.06,5.06,0,0,1-1.95-1.2.73.73,0,1,0-.68,0,5.06,5.06,0,0,1-2,1.2c-1.09-.37-1.74-.83-1.74-1.22a.15.15,0,0,1,.15-.17,1.25,1.25,0,0,1,.47.26,2,2,0,0,0,1.18.53c.44,0,.56-.12.56-.57a2.3,2.3,0,0,0-.18-.81A2.62,2.62,0,0,0,36,30.27c0-.52-.07-.65-.55-.65a1.43,1.43,0,0,0-.93.4l0,0a.57.57,0,0,1-.4.23c-.2,0-.21-.14-.21-.18a.81.81,0,0,1,.24-.44,1,1,0,0,0,.31-.63c0-.29-.19-.33-.39-.33l-.24,0a2.74,2.74,0,0,0,.16-.65.25.25,0,0,0-.06-.19.34.34,0,0,0-.31-.12,1.42,1.42,0,0,0-.3.05,1.31,1.31,0,0,0-.74-.72h-.07a1.34,1.34,0,0,0-.74.72,1.42,1.42,0,0,0-.3-.05.35.35,0,0,0-.31.12.26.26,0,0,0-.05.19,2.57,2.57,0,0,0,.15.65l-.24,0c-.2,0-.39,0-.39.33a1,1,0,0,0,.31.63.75.75,0,0,1,.24.44s0,.18-.2.18a.54.54,0,0,1-.4-.23l0,0a1.41,1.41,0,0,0-.93-.4c-.48,0-.55.13-.55.65a2.62,2.62,0,0,0,.68,1.61,2.55,2.55,0,0,0-.18.81c0,.45.12.57.56.57a2.07,2.07,0,0,0,1.19-.53,1.23,1.23,0,0,1,.46-.26.15.15,0,0,1,.15.17c0,.39-.65.85-1.74,1.22a5.13,5.13,0,0,1-1.95-1.2.73.73,0,0,0,.4-.65.73.73,0,1,0-1.07.65,4.92,4.92,0,0,1-2,1.2c-1.1-.37-1.76-.83-1.76-1.22a.16.16,0,0,1,.16-.17,1.23,1.23,0,0,1,.46.26,2.07,2.07,0,0,0,1.19.53c.44,0,.56-.12.56-.57a2.55,2.55,0,0,0-.18-.81,2.61,2.61,0,0,0,.67-1.61c0-.52-.06-.65-.55-.65a1.38,1.38,0,0,0-.92.4l0,0a.57.57,0,0,1-.4.23c-.19,0-.21-.14-.21-.18a.77.77,0,0,1,.25-.44,1,1,0,0,0,.31-.63c0-.29-.19-.33-.4-.33l-.23,0a2.57,2.57,0,0,0,.15-.65.31.31,0,0,0-.05-.19.36.36,0,0,0-.32-.12,1.35,1.35,0,0,0-.29.05,1.34,1.34,0,0,0-.74-.72h-.08a1.34,1.34,0,0,0-.74.72,1.35,1.35,0,0,0-.29-.05.36.36,0,0,0-.32.12.31.31,0,0,0-.05.19,2.57,2.57,0,0,0,.15.65l-.23,0c-.21,0-.39,0-.39.33a1,1,0,0,0,.31.63.81.81,0,0,1,.24.44s0,.18-.21.18a.57.57,0,0,1-.4-.23l0,0a1.38,1.38,0,0,0-.92-.4c-.49,0-.55.13-.55.65a2.61,2.61,0,0,0,.67,1.61,2.55,2.55,0,0,0-.18.81c0,.45.12.57.56.57a2,2,0,0,0,1.19-.53,1.31,1.31,0,0,1,.46-.26.15.15,0,0,1,.16.17c0,.39-.66.85-1.75,1.22a5.1,5.1,0,0,1-2-1.2A.74.74,0,1,0,17.76,32a.73.73,0,0,0,.4.65,5,5,0,0,1-1.94,1.19c-1.09-.37-1.73-.82-1.73-1.21,0-.11,0-.11.1-.14a1.11,1.11,0,0,1,.52.14,2.11,2.11,0,0,0,1.28.21c.19-.06.33-.11.4-.23a.41.41,0,0,0,0-.19,1,1,0,0,0,0-.28,2.73,2.73,0,0,0-.38-.74,2.72,2.72,0,0,0,.31-1.25,1.86,1.86,0,0,0-.06-.48c-.06-.25-.11-.41-.24-.49a.58.58,0,0,0-.45,0,1.41,1.41,0,0,0-.8.62l0,.05c-.09.14-.16.28-.33.32s-.24-.08-.25-.12a.74.74,0,0,1,.13-.49,1.07,1.07,0,0,0,.14-.68.28.28,0,0,0-.14-.21.4.4,0,0,0-.32,0,1.19,1.19,0,0,0-.23.07c0-.13,0-.25,0-.35,0-.29,0-.41-.13-.49a.36.36,0,0,0-.33,0,1.18,1.18,0,0,0-.27.12,1,1,0,0,0-.92-.5h-.15S13.53,32,13.53,32a2,2,0,0,0,1.26,2.21l.24.12a1.26,1.26,0,0,0-.83,1.14,1.12,1.12,0,0,0,.89,1.13c.07,2.88.5,20.65.5,20.65a18.32,18.32,0,0,0,4.9,12.94,16.62,16.62,0,0,0,12,4.89,16.61,16.61,0,0,0,12-4.89,18.32,18.32,0,0,0,4.9-12.94s.47-18.89.51-20.65a1.14,1.14,0,0,0,.86-1.13A1.26,1.26,0,0,0,50,34.33l.25-.12A2,2,0,0,0,51.46,32l1.16-4.49Zm-3.66,7.36c.38.16.68.31.68.47s0,.27-.65.27c-.32,0-.7-.05-.7-.27s.46-.37.67-.47Zm-3.35-.6a4.86,4.86,0,0,0,1-.78,4.58,4.58,0,0,0,1,.78l.06,0a3.5,3.5,0,0,0-1.13.72,3.54,3.54,0,0,0-1.1-.71l.09-.05Zm-1.33.65c.28.12.66.29.66.42s0,.27-.64.27-.64-.21-.64-.27.38-.31.62-.42Zm-3.37-.62a4.27,4.27,0,0,0,1-.8,4.27,4.27,0,0,0,1,.8l.14.08a3.82,3.82,0,0,0-1.17.83,4,4,0,0,0-1.16-.85l.11-.06Zm-1.26.61c.26.12.64.3.64.43s-.22.27-.66.27-.67-.09-.67-.27.38-.3.69-.43Zm-3.38-.64a4.85,4.85,0,0,0,1-.78,5.23,5.23,0,0,0,1,.78l.07,0a3.54,3.54,0,0,0-1.1.71A3.55,3.55,0,0,0,36,34.3l.08,0Zm-1.32.64c.3.13.69.3.69.43s0,.27-.67.27-.66-.18-.66-.27.38-.32.64-.43Zm-3.34-.61a4.27,4.27,0,0,0,1-.8,4.06,4.06,0,0,0,1,.8l.09.05a3.61,3.61,0,0,0-1.17.8,4,4,0,0,0-1.11-.79l.12-.06Zm-1.27.61c.26.12.65.3.65.43s-.37.27-.67.27-.66,0-.66-.27.38-.3.68-.43Zm-3.38-.64a4.86,4.86,0,0,0,1-.78,5.18,5.18,0,0,0,1,.78l.08,0a3.39,3.39,0,0,0-1.12.73,3.55,3.55,0,0,0-1.12-.72l.09-.05Zm-1.33.64c.28.13.67.3.67.43s0,.27-.65.27-.64-.2-.64-.27.36-.31.62-.43Zm-3.36-.61a4.27,4.27,0,0,0,1-.8,4.27,4.27,0,0,0,1,.8l.1.06a3.51,3.51,0,0,0-1.16.8A4.21,4.21,0,0,0,22,34.36l.12-.07Zm-1.28.61c.25.11.64.3.64.43s0,.27-.65.27-.66-.19-.66-.27.39-.3.67-.43Zm-3.38-.64a4.56,4.56,0,0,0,1-.78,4.86,4.86,0,0,0,1,.78l.08.05a3.6,3.6,0,0,0-1.09.7,3.61,3.61,0,0,0-1.13-.71l.07,0Zm-1.28.6c.21.1.67.33.67.47s-.17.27-.69.27-.66-.14-.66-.27.31-.31.68-.47Z"/><path class="cls-4" d="M43.47,54.13l-.62-.35c-1.29-.79-3.2-3.29-3.2-5.13,0-.11,0-.22,0-.33H38.38a3.17,3.17,0,0,1-.51,1,2.46,2.46,0,0,0-.34,1.37c0,.1,0,.22,0,.33l0,.22-.21.05a1.63,1.63,0,0,1-1-.12,1.79,1.79,0,0,0,.29.88l.12.15-.11.16a1.76,1.76,0,0,1-.37.35,4.12,4.12,0,0,0,.77.68c.61.4,1.26.77,1.89,1.12,1.86,1.06,3.63,2,3.63,3.63a1.59,1.59,0,0,1-.16.72,1.61,1.61,0,0,0,.89.21,2.37,2.37,0,0,0,2.42-2.47c0-1.22-1.17-1.88-2.3-2.52Z"/><path class="cls-4" d="M32.48,42.87a1.34,1.34,0,0,0-.28-.38,1.75,1.75,0,0,0-.73-.39,1.34,1.34,0,0,1-.29.6,1.79,1.79,0,0,1-.21.24,3.44,3.44,0,0,1,.81-.11c.23,0,.48,0,.7,0Z"/><path class="cls-4" d="M15.36,36.8l.5,20.49c0,10.53,7.31,17.53,16.64,17.53s16.64-7,16.64-17.53l.5-20.49ZM47.27,56.05c0,.22,0,.47,0,.75A3.72,3.72,0,0,1,47,58.45a1.3,1.3,0,0,1,.75.14l.32.18-.29.24a4.76,4.76,0,0,0-.77.83l-.17.21a1.6,1.6,0,0,1-1.37.6,1.1,1.1,0,0,1-.66-.23,3.06,3.06,0,0,1-1.61.41,5.44,5.44,0,0,1-1.92-.39A1.7,1.7,0,0,0,40.15,62a1.65,1.65,0,0,0,1.34,1.61,1.67,1.67,0,0,1,1.07-.37A1.5,1.5,0,0,1,44,64.8a3.67,3.67,0,0,1-.13.91,3.09,3.09,0,0,0-.13.88.62.62,0,0,0,.23.46l.16.14-.11.19a1.26,1.26,0,0,1-1.42.39.93.93,0,0,1-.37.61l-.1.08-.11,0a.84.84,0,0,1-.49-.28,4,4,0,0,1-.85,1,.77.77,0,0,1,.23.53.86.86,0,0,1-.09.39.85.85,0,0,1,.22.54,1.27,1.27,0,0,1-.9,1.06H40l-.07-.15a1,1,0,0,0-.41-.49.77.77,0,0,1-.71-.15,1.26,1.26,0,0,1-.46.51s0,.06,0,.09a1.12,1.12,0,0,1-.14.51,1.14,1.14,0,0,1-.62.56,1.72,1.72,0,0,1-.77,1l-.34.18,0-.39a2.09,2.09,0,0,0-.27-.86,1.19,1.19,0,0,1-.44-.32,1.35,1.35,0,0,1-.93.17,1.78,1.78,0,0,0-.67.6l-.14.17-.18-.1a1,1,0,0,1-.46-.86,1,1,0,0,1,.44-.91,1,1,0,0,1,.4-1,1.09,1.09,0,0,1-.22-.41.67.67,0,0,0-.36.21l-.37.38-.06-.52a1.57,1.57,0,0,1,.26-1.25,1,1,0,0,1,.77-.33,1,1,0,0,1,.61.18,1.33,1.33,0,0,1,.34,0,1.08,1.08,0,0,1,.59.18.81.81,0,0,0,.46.13,2.72,2.72,0,0,0,1.56-.88,2.86,2.86,0,0,0,.71-1.31,3.24,3.24,0,0,0-.26.43l-.1.19-.2-.06a1.45,1.45,0,0,1-.88-1,1.54,1.54,0,0,1-.53.26l-.31.09v-.34c0-.69-.12-.81-.75-1.47l-.29-.31A3.79,3.79,0,0,1,34,61.36c0-.11,0-.22,0-.33H33.6a1.27,1.27,0,0,0-1.24,1.21.85.85,0,0,0,.15.47,2.41,2.41,0,0,1,.3,1.29,3.26,3.26,0,0,1-1.67,2.73l-.37.25,0-.46a2.13,2.13,0,0,0,0-.39,2.55,2.55,0,0,1-.87.61l-.21.08-.23-.45a8.27,8.27,0,0,1-1.72.71s0,.08,0,.12a1.41,1.41,0,0,1-.29.79v0a1,1,0,0,1-1,.9l-.37,0,.11-.35a.4.4,0,0,0-.17-.44,1.36,1.36,0,0,1-.67-.58,1.77,1.77,0,0,1-.31.08,1.41,1.41,0,0,1-.29.88,1.31,1.31,0,0,1-.77.42,1.85,1.85,0,0,1-.46.61l-.13.1-.15-.08a1.36,1.36,0,0,1-.68-1v0a.85.85,0,0,1-.3-.44,1,1,0,0,1,0-.25,1.21,1.21,0,0,1,.07-.4h-.1a.75.75,0,0,1-.51-.22,1.13,1.13,0,0,0-.39.42l-.17.33-.24-.28a1.38,1.38,0,0,1-.36-1,1.14,1.14,0,0,1,1-1.13,1.1,1.1,0,0,1,.81-.4,1.66,1.66,0,0,1,.32,0h0a1.15,1.15,0,0,0-.51-.07l-.28,0v-.29a1.08,1.08,0,0,1,1-1,.86.86,0,0,1,.69.25,1.24,1.24,0,0,1,.27,0,1.14,1.14,0,0,1,.81.34.57.57,0,0,0,.4.18,3.22,3.22,0,0,0,2-.83,1,1,0,0,1-.37-.19l-.22-.17.19-.2c.29-.32.35-.49.35-1.67a3.49,3.49,0,0,1,1.43-2.73,5.71,5.71,0,0,1,3.53-1.13h.83l.89,0s.14,0,.38-.28a8.1,8.1,0,0,1-5.08-2.05,1,1,0,0,1-.5.6l-.12.06-.12-.08a3.05,3.05,0,0,0-1.3-.5,1.47,1.47,0,0,1-.63.9l-.19.11-.24-.34a2.75,2.75,0,0,0-.52-.6,1.08,1.08,0,0,1-.4.52l-.14.1-.24-.16A2.54,2.54,0,0,0,23,55.55a2.11,2.11,0,0,0-.86.19,1.12,1.12,0,0,1,.08.38v0a.92.92,0,0,1-.28.62.66.66,0,0,1-.2.14,1.42,1.42,0,0,1-.61.82l-.19.12-.14-.17a1.94,1.94,0,0,1-.32-.51,1.09,1.09,0,0,1-.53-.3.73.73,0,0,0-.1.39.81.81,0,0,1-.55.68,1.89,1.89,0,0,0-.1.53l0,.25-.25,0a1,1,0,0,1-.69-.26.88.88,0,0,1-.31-.6V57.8a.85.85,0,0,1-.33-.75,2,2,0,0,1,0-.23l-.12-.06-.07,0a.71.71,0,0,0-.36.41l-.13.34-.29-.26a1.21,1.21,0,0,1-.48-.92.94.94,0,0,1,.52-.83.15.15,0,0,1,0-.07.76.76,0,0,1,.14-.44.89.89,0,0,1,.48-.33,1.08,1.08,0,0,1-.22-.5,1.31,1.31,0,0,0-.56-.12h-.37l.14-.35a1.23,1.23,0,0,1,1.1-.8A1.46,1.46,0,0,1,18,53a.44.44,0,0,1,.16,0,1,1,0,0,1,.62.27,1,1,0,0,0,.53.24,6.31,6.31,0,0,0,1-.36,11,11,0,0,1,1.05-.4,8.43,8.43,0,0,0,1.85-1,2.24,2.24,0,0,1-.13-.27l-.1-.23.23-.1a1.13,1.13,0,0,0,.27-.16,1.72,1.72,0,0,0-.2-.76,1.39,1.39,0,0,1-1.1.32l-.3,0,.1-.28A3.27,3.27,0,0,0,22.18,49a4,4,0,0,0-.07-.68,1,1,0,0,1-.69.21h-.26v-.25a4.43,4.43,0,0,0-.92-2.68l-.08,0a1.35,1.35,0,0,1-1.1.69,1.08,1.08,0,0,1-.95-.57l-.17-.3.34-.07a.88.88,0,0,0,.47-.25,1.58,1.58,0,0,1-.33-.78,1.65,1.65,0,0,1-.68-.31.92.92,0,0,0-.43.5l-.16.4-.27-.33a1.38,1.38,0,0,1-.35-.95,1.13,1.13,0,0,1,.94-1.12,1,1,0,0,1,.86-.4h.12a.9.9,0,0,1-.52-.79A.78.78,0,0,1,18,41a1.13,1.13,0,0,0-.34-.1l-.22,0v-.23a1.09,1.09,0,0,1,1-1,1,1,0,0,1,1,.6,1,1,0,0,1,.3.19.83.83,0,0,1,.22.37.91.91,0,0,1,0-.17v-.06a.71.71,0,0,1,0-.21,1.44,1.44,0,0,0-.44-.39l-.2-.13.11-.21a1.07,1.07,0,0,1,1-.46,1.14,1.14,0,0,1,1,.89.71.71,0,0,1,.42.64,2.48,2.48,0,0,1-.12.68,2.07,2.07,0,0,0-.08.41c0,.35.28.68.71,1.17a15,15,0,0,1,.95,1.18,14.5,14.5,0,0,0,3,1.94,2.56,2.56,0,0,1,.66-.85l.16-.13.16.14a1.93,1.93,0,0,0,1.44.62v-1H29a1.45,1.45,0,0,1,.64.26,3.15,3.15,0,0,0,1.63.56c.27,0,.74-.08.74-.41S31.9,45,31.81,45s-.31.3-.69.3a.92.92,0,0,1-1-.81.56.56,0,0,1,.05-.23.42.42,0,0,1,0-.29,5.21,5.21,0,0,1-1.55.32,1.76,1.76,0,0,1-2-1.62,1.07,1.07,0,0,1,1-1.16.77.77,0,0,1,.46.15l.17.14-.14.12a1,1,0,0,0-.23.64c0,.36.39.74,1.26.74a5,5,0,0,0,.8-.09.58.58,0,0,1-.06-.15l-.12,0a1.26,1.26,0,0,1-.89-1.11,1.18,1.18,0,0,1,.09-.47.59.59,0,0,1-.12-.43c0-.68,1.11-1.4,1.54-1.67a3.43,3.43,0,0,1,3.09-1.58,1.89,1.89,0,0,1,1.09-.28,2.15,2.15,0,0,1,.57.08,1.27,1.27,0,0,1,.71-.23,1.08,1.08,0,0,1,.83.93,3.46,3.46,0,0,0,1,.35l.28,0-.07.28a1.26,1.26,0,0,1-.25.45,5.85,5.85,0,0,1,.48.34,4,4,0,0,0,.76.48l.27.13-.17.25a1.64,1.64,0,0,1-.38.4,3.62,3.62,0,0,1,.59,1.2,3.86,3.86,0,0,0,.91,1.38l.28.26-.35.15a2.23,2.23,0,0,1-.74.19,5,5,0,0,1,.05.75,18.75,18.75,0,0,1-.17,2.17,1,1,0,0,0,0,.17,1.25,1.25,0,0,0,.2.68l.26.39a5.13,5.13,0,0,1,2-3.81,3.25,3.25,0,0,1,2.14-3.43l.07,0c.15-.07.38-.2.59-.32l.61-.34.08.31a1.94,1.94,0,0,1,.08.56,1.68,1.68,0,0,1-.05.4A3.28,3.28,0,0,0,46.88,40l.25-.63.22.64a4.48,4.48,0,0,1,.23,1.62c0,1.61-1,3.48-3.82,3.9A2.73,2.73,0,0,0,41.54,47a3.21,3.21,0,0,1,1.44-.4l.8-.07-.62.52,0,0A3.91,3.91,0,0,1,44.22,47,2.7,2.7,0,0,0,46,46.47l.57-.44-.17.7c-.25,1-1.23,1.34-2.18,1.68-1.12.41-2.19.79-2.19,2.17A1.78,1.78,0,0,0,42.75,52c0-.13,0-.26,0-.39a1.5,1.5,0,0,1,1.64-1.29,4,4,0,0,1,.88.14,2.35,2.35,0,0,0,.57.11.74.74,0,0,0,.7-.39L47,49.5v.82c0,.85-.74,1.16-1.33,1.41s-1,.42-1,.85c0,.6.58,1,1.1,1.4a1.5,1.5,0,0,1,.87-.91L47,53a1.33,1.33,0,0,0,.67-.38l.24-.23.15.29a1.4,1.4,0,0,1,.15.71,2.27,2.27,0,0,1-.49,1.19,2.07,2.07,0,0,0-.46,1.13c0,.1,0,.24,0,.39Z"/><path class="cls-4" d="M30.84,44c.41,0,.57.06.88.06s.68,0,.83-.33a5.11,5.11,0,0,0-.9-.08,3.07,3.07,0,0,0-1,.18.37.37,0,0,0,.12.17Z"/><path class="cls-2" d="M46.33,59A4.26,4.26,0,0,0,47,55.66c0-.93,1-1.54,1-2.31a1.08,1.08,0,0,0-.11-.59,2.31,2.31,0,0,1-1.08.55A1.1,1.1,0,0,0,46,54.45c-.61-.43-1.57-1-1.57-1.86,0-1.27,2.3-.92,2.3-2.27a1,1,0,0,1-.91.5c-.4,0-.93-.25-1.46-.25a1.26,1.26,0,0,0-1.38,1,1.65,1.65,0,0,0,.16.89,2,2,0,0,1-1.33-1.91c0-2.8,3.89-2,4.37-3.92-1.37,1.06-2.4.14-3.67,1a1.22,1.22,0,0,1,.48-.79,3,3,0,0,0-2.05.88,3.1,3.1,0,0,1,2.77-2.44c2.46-.37,3.61-1.94,3.61-3.65a4.41,4.41,0,0,0-.21-1.54,3.84,3.84,0,0,1-2.39,2,1.74,1.74,0,0,0,.15-1.33c-.2.1-.67.38-.94.51a3,3,0,0,0-2,3.33,4.93,4.93,0,0,0-2,4c0,1.76,1.86,4.16,3.08,4.91s3,1.47,3,3.1a2.62,2.62,0,0,1-2.67,2.72,1.77,1.77,0,0,1-1.23-.4,1.15,1.15,0,0,0,.25-.79c0-1.92-2.92-3-5.41-4.53a3.5,3.5,0,0,1-.85-.75,2.49,2.49,0,0,1-1,.15,4.43,4.43,0,0,1-1.29-.27,6.91,6.91,0,0,1-4.45,1.52c-1.08,0-1.77-.4-2.73-.4a1.61,1.61,0,0,0-1.36.59,1.35,1.35,0,0,1-.56-1.77,2.22,2.22,0,0,1-1.35-.84,8.3,8.3,0,0,1-1.94,1c-.54.14-1.77.77-2.08.77-.5,0-.8-.51-1.15-.51a.82.82,0,0,0-.26,1.6c-.76,0-1,.2-1,.67a.85.85,0,0,1,.6,1,.31.31,0,0,0,.37.13c-.05.23-.18.72.17,1a.59.59,0,0,1,.58-.34.65.65,0,0,1,.54.42.46.46,0,0,0,.36-.42c0-.45.23-.75.42-.76a.61.61,0,0,0,.5.42.53.53,0,0,1,.51-.64.62.62,0,0,1,.62.4.56.56,0,0,0,.32-.54.53.53,0,0,0-.19-.47,2.13,2.13,0,0,1,1.22-.37,2.9,2.9,0,0,1,1.82.65.81.81,0,0,0,.35-.62c.38,0,.66.42,1,.91a1.13,1.13,0,0,0,.52-1,3.3,3.3,0,0,1,1.66.56,1,1,0,0,0,.45-.85,8,8,0,0,0,5.65,2.31,3.19,3.19,0,0,1,2.8,1.58,2.24,2.24,0,0,0-1-.2c-1.1,0-2,1.33-2,2.67a3.58,3.58,0,0,0,1.09,2.77c.88.93,1.11,1,1.11,2a1,1,0,0,0,.73-.68A1.47,1.47,0,0,0,38,66.85a2.33,2.33,0,0,1,.79-1A3.16,3.16,0,0,1,36.17,69c-.56,0-.6-.31-1.05-.31a1,1,0,0,0-1,.89.78.78,0,0,0,.42.67.83.83,0,0,0-.56,1,.7.7,0,0,1,.82.9,1.06,1.06,0,0,0,.93-.3.76.76,0,0,0,.48.46.77.77,0,0,1,.64-.43.59.59,0,0,1,.62.48.84.84,0,0,0,.5-1,1.05,1.05,0,0,0,.64-.84c.21.28.49.49.79.35a.85.85,0,0,1,.71-.9.92.92,0,0,1,.43.08.59.59,0,0,0-.33-.81,3.63,3.63,0,0,0,1.28-1.58.65.65,0,0,0,.52.62.87.87,0,0,0,.32-.72c.59.19,1.2.15,1.41-.22a.88.88,0,0,1-.31-.66c0-.77.26-1.08.26-1.78a1.25,1.25,0,0,0-1.17-1.31,1.37,1.37,0,0,0-1,.38A1.89,1.89,0,0,1,39.89,62a2,2,0,0,1,1.33-1.83,5.14,5.14,0,0,0,1.93.41,2.47,2.47,0,0,0,1.62-.48.9.9,0,0,0,.65.3,1.38,1.38,0,0,0,1.18-.5,6,6,0,0,1,1-1.08,1.12,1.12,0,0,0-1.24.15Z"/><path class="cls-2" d="M24.11,49.86a3.8,3.8,0,0,1,2.16-2,3.6,3.6,0,0,1-.09-.87,2.35,2.35,0,0,1,.1-.6,13.72,13.72,0,0,1-3.12-2c-.93-1.3-1.72-1.79-1.71-2.5,0-.29.21-.71.21-1.08s-.46-.53-.75-.53-.69.1-.71.41a2.38,2.38,0,0,0,.15.74,2.1,2.1,0,0,1,0,.75,1.84,1.84,0,0,1-.61-1,.59.59,0,0,0-.65-.58c-.35,0-.91.43-.91.84s.26.49.51.64a.92.92,0,0,1,.43.6,1.41,1.41,0,0,0-.79-.2.69.69,0,0,0-.76.71c0,.69.52,1,1.1,1a1.24,1.24,0,0,0,1.2,1.29.52.52,0,0,0,.43-.2,4.92,4.92,0,0,1,1.12,3,.65.65,0,0,0,.76-.64,3.63,3.63,0,0,1,0,2.62,1,1,0,0,0,1.08-.53,1.9,1.9,0,0,1,.39,1.07,5.57,5.57,0,0,0,.44-.94Z"/><path class="cls-2" d="M36.69,58.52a3.63,3.63,0,0,0-2.39-1h0a2.51,2.51,0,0,1,1.58.93,1.78,1.78,0,0,1,.81,0Z"/><path class="cls-2" d="M34.14,57.76h0a.81.81,0,0,1-.51.33c-.67,0-1.11,0-1.72,0-2.71,0-4.71,1.68-4.71,3.61,0,1.18-.05,1.44-.42,1.84a1,1,0,0,0,.63.2C27,64.67,25.39,65,25,65c-.56,0-.58-.52-1.21-.52-.41,0-.93.18-.93.65a1.21,1.21,0,0,0,.13.58,1.48,1.48,0,0,0-.7-.15.84.84,0,0,0-.8.82c0,.45.29.9.65.9a1.82,1.82,0,0,0,.54-.06c-.32.44-.39.83-.05,1.15a.76.76,0,0,1,.72-.41.63.63,0,0,1,.59.76,1,1,0,0,0,.78-1.27,1,1,0,0,0,.7-.21.93.93,0,0,0,.59.71.88.88,0,0,1,.66-.46.63.63,0,0,1,.58.3.8.8,0,0,0,.13-.86A8.19,8.19,0,0,0,29.49,66l.25.49a2.25,2.25,0,0,0,1-.85,1.44,1.44,0,0,1,.23.87A3,3,0,0,0,32.56,64c0-1.15-.45-1.14-.45-1.76a1.54,1.54,0,0,1,1.49-1.47H34a2.88,2.88,0,0,1,1.57-2.24,2.65,2.65,0,0,0-1.44-.8Z"/><path class="cls-2" d="M30.12,43.06a.67.67,0,0,0,.06.12l.21-.06s0-.06,0-.09a1,1,0,0,1-.28,0Z"/><path class="cls-2" d="M30.35,44.14A.37.37,0,0,1,30.6,44a.37.37,0,0,1-.08-.15l-.18.06a.4.4,0,0,0,0,.24Z"/><path class="cls-2" d="M39,47.09A7.71,7.71,0,0,0,39,44a2.83,2.83,0,0,0,1-.19,4.07,4.07,0,0,1-1-1.49c-.14-.46-.45-1.18-.82-1.32a1.1,1.1,0,0,0,.64-.5c-.64-.3-.92-.68-1.57-1a1,1,0,0,0,.44-.56,3.31,3.31,0,0,1-1-.32,1.52,1.52,0,0,1-.41.78l-.19-.16a1.34,1.34,0,0,0,.37-.74,1,1,0,0,0-.47-.79c-.21-.12-.39-.1-.83.19l-.68.58-.13-.16c.19-.18.43-.37.54-.47a1.24,1.24,0,0,0-.31,0,1.56,1.56,0,0,0-1,.27,3.16,3.16,0,0,0-3,1.51c-.7.41-1.48,1-1.48,1.49a.48.48,0,0,0,.05.24,2.51,2.51,0,0,0,.54-.4l.11.12a3.56,3.56,0,0,1-.56.45.87.87,0,0,0-.11.49,1,1,0,0,0,1.07.93,1,1,0,0,0,1-1,1.64,1.64,0,0,1,1.62,1.6c0,.76-.84.83-1.13.83s-.52-.08-.84-.08-.48.11-.48.33.35.55.72.55.39-.3.68-.3.47.09.47.57-.5.67-1,.67c-1.14,0-1.93-.83-2.26-.83v1a2.28,2.28,0,0,1-1.86-.69,2,2,0,0,0-.76,1.5,3.39,3.39,0,0,0,.13,1.06,3.35,3.35,0,0,0-2.29,2c-.28.66-.36,1-.94,1.25A2,2,0,0,0,25,52.58c-.44.49-.18,1.56.14,1.6a1.84,1.84,0,0,1,1.35-.46c1.11,0,1.71.39,2.8.39a6.24,6.24,0,0,0,4.36-1.56,3.88,3.88,0,0,0,1.42.33,1.7,1.7,0,0,0,1.39-.59,1.74,1.74,0,0,1-.28-1.43,1.44,1.44,0,0,0,1.08.27,3,3,0,0,1,.38-1.88,3.2,3.2,0,0,0,.52-1.15h1a1.45,1.45,0,0,1-.24-1Zm-6.86-6.83a1.42,1.42,0,0,0-.22-.28.53.53,0,0,1-.43.32.47.47,0,0,1-.46-.47.65.65,0,0,1,.14-.37,1.6,1.6,0,0,1,1.12.69l-.15.11Z"/><path class="cls-2" d="M31.11,39.84a.33.33,0,0,0,.32.34.43.43,0,0,0,.34-.27,1,1,0,0,0-.6-.3.46.46,0,0,0-.06.23Zm.05-.21Z"/><path class="cls-2" d="M32.58,43.09a6,6,0,0,0-.81,0,4.9,4.9,0,0,0-1.45.29,3.3,3.3,0,0,1-1.14.19c-1.07,0-1.48-.52-1.48-1a1.13,1.13,0,0,1,.28-.73.51.51,0,0,0-.32-.1.85.85,0,0,0-.79.94c0,1,.89,1.4,1.76,1.4a5.6,5.6,0,0,0,1.9-.45,4,4,0,0,1,1.12-.23,3.41,3.41,0,0,1,1,.09.34.34,0,0,0,0-.11,1.14,1.14,0,0,0,0-.3Z"/><path class="cls-5" d="M20.75,40a1.58,1.58,0,0,1,.46.05.81.81,0,0,0-.81-.6.84.84,0,0,0-.76.36,1.15,1.15,0,0,1,.5.43.88.88,0,0,1,.61-.24Z"/><path class="cls-5" d="M19.16,40.33a.76.76,0,0,0-.71-.38.84.84,0,0,0-.8.78.89.89,0,0,1,.49.14,1.25,1.25,0,0,1,1-.54Z"/><path class="cls-5" d="M17.41,42.8a.89.89,0,0,0-.67.89,1.38,1.38,0,0,0,.36.87,1,1,0,0,1,.49-.68,1.21,1.21,0,0,1-.18-1.08Z"/><path class="cls-5" d="M18.92,45.28a1.12,1.12,0,0,1-.66.31,1,1,0,0,0,.79.52,1.06,1.06,0,0,0,.85-.47,1.26,1.26,0,0,1-1-.36Z"/><path class="cls-5" d="M16.8,55.66a.61.61,0,0,0-.41.59,1.17,1.17,0,0,0,.48.86.9.9,0,0,1,.43-.6.7.7,0,0,0-.5-.85Z"/><path class="cls-5" d="M17.75,53.1a2.11,2.11,0,0,0-.33,0,1.05,1.05,0,0,0-1,.71,1.17,1.17,0,0,1,.61.11,1.12,1.12,0,0,1,.68-.78Z"/><path class="cls-5" d="M18.58,57.48a.46.46,0,0,0-.42.32.75.75,0,0,0,.77.72,1.58,1.58,0,0,1,.08-.63c-.08-.24-.23-.41-.43-.41Z"/><path class="cls-5" d="M21,56.46c-.39,0-.36.39-.35.62a1.9,1.9,0,0,0,.31.49,1,1,0,0,0,.52-.68c-.09-.29-.25-.43-.48-.43Z"/><path class="cls-5" d="M23.29,64.31a.63.63,0,0,0-.42-.12.82.82,0,0,0-.78.82,1.2,1.2,0,0,1,.56,0,.8.8,0,0,1,.64-.74Z"/><path class="cls-5" d="M21.4,65.91a.9.9,0,0,0-.7.87,1.3,1.3,0,0,0,.34.86,1.15,1.15,0,0,1,.45-.54,1.15,1.15,0,0,1-.09-1.19Z"/><path class="cls-5" d="M23.31,68.16a.6.6,0,0,0-.56.42,1,1,0,0,0,.55.77,1.38,1.38,0,0,0,.4-.51c.09-.24,0-.68-.39-.68Z"/><path class="cls-5" d="M26.69,67.68c-.3,0-.49.36-.49.36a.54.54,0,0,1,.11.67c.43,0,.9-.34.85-.67,0,0-.16-.36-.47-.36Z"/><path class="cls-5" d="M34.52,68.6a.74.74,0,0,0-.33-.07c-.65,0-.93.56-.79,1.31a.83.83,0,0,1,.51-.31,1,1,0,0,1,.61-.93Z"/><path class="cls-5" d="M34.15,71.37a1,1,0,0,0-.31,0,.79.79,0,0,0-.27.68.75.75,0,0,0,.35.67,1.73,1.73,0,0,1,.66-.65c.13-.36,0-.75-.43-.75Z"/><path class="cls-5" d="M36.87,72c-.21,0-.36.15-.51.39a2.47,2.47,0,0,1,.28,1,1.37,1.37,0,0,0,.67-.86c0-.23-.16-.5-.44-.5Z"/><path class="cls-5" d="M39.66,70.86c.15.07.28.18.45.55a1,1,0,0,0,.63-.77.68.68,0,0,0-.14-.39.82.82,0,0,0-.46-.13.66.66,0,0,0-.48.74Z"/><path class="cls-1" d="M45,45a3.49,3.49,0,0,0,2.33-3.31v-.32H46.18a4.38,4.38,0,0,1-1.46.8,1.71,1.71,0,0,0,.22-.8,2.09,2.09,0,0,0-.07-.53c-.2.1-.67.38-.94.51l-.06,0a3,3,0,0,0-2,3.31c-.11.1-.23.2-.35.32Z"/><path class="cls-1" d="M18.67,44.15a1.19,1.19,0,0,0,.27.82h4.92a2.87,2.87,0,0,1-.7-.61c-.93-1.3-1.72-1.79-1.71-2.5a2.56,2.56,0,0,1,.11-.52H20.34s0,0,0,.06a2.1,2.1,0,0,1,0,.75,2.32,2.32,0,0,1-.56-.81H18.18v0c0,.35.26.49.51.64a.92.92,0,0,1,.43.6,1.41,1.41,0,0,0-.79-.2.69.69,0,0,0-.76.71c0,.69.52,1,1.1,1Z"/><path class="cls-1" d="M30.22,42.88a1,1,0,0,0,1-1,1.64,1.64,0,0,1,1.62,1.6c0,.76-.84.83-1.13.83s-.52-.08-.84-.08-.48.11-.48.33a.55.55,0,0,0,.32.45.88.88,0,0,0,.4.1.46.46,0,0,0,.31-.1c.12-.09.2-.2.37-.2a.44.44,0,0,1,.38.2h6.95A2.87,2.87,0,0,0,39,44a2.83,2.83,0,0,0,1-.19,4.07,4.07,0,0,1-1-1.49,4.13,4.13,0,0,0-.42-.95H29.43l-.17.12a.87.87,0,0,0-.11.49,1,1,0,0,0,1.07.93Z"/><path class="cls-6" d="M30.4,43a1,1,0,0,1-.28,0,.67.67,0,0,0,.06.12l.21-.06s0-.06,0-.09Z"/><path class="cls-6" d="M30.6,44a.37.37,0,0,1-.08-.15l-.18.06a.4.4,0,0,0,0,.24A.37.37,0,0,1,30.6,44Z"/><path class="cls-1" d="M43.48,48.44H39.89v.24a6.18,6.18,0,0,0,1.48,3.38h1.06a2,2,0,0,1-.62-1.47,2.21,2.21,0,0,1,1.67-2.15Z"/><path class="cls-1" d="M44.61,52.06c.54-.67,2.12-.62,2.12-1.74a1,1,0,0,1-.91.5c-.4,0-.93-.25-1.46-.25a1.26,1.26,0,0,0-1.38,1,3.24,3.24,0,0,0,0,.45Z"/><path class="cls-1" d="M22.2,50.26a1,1,0,0,0,1.08-.53,1.9,1.9,0,0,1,.39,1.07,5.57,5.57,0,0,0,.44-.94,4.67,4.67,0,0,1,1.12-1.42H22.38a3.44,3.44,0,0,1-.18,1.82Z"/><path class="cls-1" d="M24.22,50.1c-.28.66-.36,1-.94,1.25a1.74,1.74,0,0,0,.49.71H36.34a1.66,1.66,0,0,1-.14-1.2,1.44,1.44,0,0,0,1.08.27,3,3,0,0,1,.38-1.88,3,3,0,0,0,.42-.81H25.6a3.9,3.9,0,0,0-1.38,1.66Z"/><path class="cls-1" d="M46.33,59A4.26,4.26,0,0,0,47,55.66s0-.09,0-.13H45.65A2,2,0,0,1,46,56.69a2.63,2.63,0,0,1-1.5,2.46h2.7l.36-.33a1.12,1.12,0,0,0-1.24.15Z"/><path class="cls-1" d="M40.13,55.53H29.36a8.15,8.15,0,0,0,5,1.78,3.19,3.19,0,0,1,2.8,1.58,2.24,2.24,0,0,0-1-.2,1.6,1.6,0,0,0-1.09.46h7.2a1.21,1.21,0,0,1-.2-.14,1.15,1.15,0,0,0,.25-.79c0-1.09-1-1.9-2.23-2.69Z"/><path class="cls-1" d="M21.91,56.14a.53.53,0,0,0-.19-.47,1.43,1.43,0,0,1,.22-.14H17.08a.89.89,0,0,1,.44.94.31.31,0,0,0,.37.13c-.05.23-.18.72.17,1a.59.59,0,0,1,.58-.34.65.65,0,0,1,.54.42.46.46,0,0,0,.36-.42c0-.45.23-.75.42-.76a.61.61,0,0,0,.5.42.53.53,0,0,1,.51-.64.62.62,0,0,1,.62.4.56.56,0,0,0,.32-.54Z"/><path class="cls-1" d="M28.31,55.85a.71.71,0,0,0,.32-.32h-.92a5,5,0,0,1,.6.32Z"/><path class="cls-1" d="M25.07,55.53h-1a6,6,0,0,1,.71.42.8.8,0,0,0,.31-.42Z"/><path class="cls-1" d="M26.13,56.24a1.16,1.16,0,0,0,.5-.71H25.57a5.87,5.87,0,0,1,.56.71Z"/><path class="cls-1" d="M35.88,58.49a1.78,1.78,0,0,1,.81,0,3.63,3.63,0,0,0-2.39-1h0a2.51,2.51,0,0,1,1.58.93Z"/><path class="cls-1" d="M35.58,58.56a2.65,2.65,0,0,0-1.44-.8.81.81,0,0,1-.51.33c-.67,0-1.11,0-1.72,0a5.47,5.47,0,0,0-3.39,1.09h6.25a2.13,2.13,0,0,1,.81-.59Z"/><path class="cls-1" d="M42.55,63.5a1.37,1.37,0,0,0-1,.38A1.84,1.84,0,0,1,40,62.62H34.37a4,4,0,0,0,.93,1.51c.88.93,1.11,1,1.11,2a1,1,0,0,0,.73-.68,2.12,2.12,0,0,0,.19.85h1a1.82,1.82,0,0,1,.41-.38,2.41,2.41,0,0,1,0,.38h4.74a10.55,10.55,0,0,0,.24-1.44,1.25,1.25,0,0,0-1.17-1.31Z"/><path class="cls-1" d="M27.17,62.62a1.34,1.34,0,0,1-.39.89,1,1,0,0,0,.63.2C27,64.67,25.39,65,25,65c-.56,0-.58-.52-1.21-.52-.41,0-.93.18-.93.65a1.21,1.21,0,0,0,.13.58,1.48,1.48,0,0,0-.7-.15.85.85,0,0,0-.79.7h7.62a4,4,0,0,0,.37-.22l.11.22h.62a2.45,2.45,0,0,0,.54-.58,1.28,1.28,0,0,1,.21.58h.41A2.74,2.74,0,0,0,32.56,64a2.57,2.57,0,0,0-.38-1.4Z"/><path class="cls-1" d="M34.57,70.23a.83.83,0,0,0-.56,1,.7.7,0,0,1,.82.9,1.06,1.06,0,0,0,.93-.3.76.76,0,0,0,.48.46.77.77,0,0,1,.64-.43.59.59,0,0,1,.62.48.84.84,0,0,0,.5-1,1.05,1.05,0,0,0,.64-.84c.21.28.49.49.79.35a.85.85,0,0,1,.71-.9.92.92,0,0,1,.43.08.67.67,0,0,0,.06-.27H34.16a.82.82,0,0,0,.41.54Z"/><path class="cls-1" d="M32.58,43.09a6,6,0,0,0-.81,0,4.9,4.9,0,0,0-1.45.29,3.3,3.3,0,0,1-1.14.19c-1.07,0-1.48-.52-1.48-1a1.13,1.13,0,0,1,.28-.73.51.51,0,0,0-.32-.1.85.85,0,0,0-.79.94c0,1,.89,1.4,1.76,1.4a5.6,5.6,0,0,0,1.9-.45,4,4,0,0,1,1.12-.23,3.41,3.41,0,0,1,1,.09.34.34,0,0,0,0-.11,1.14,1.14,0,0,0,0-.3Z"/><path class="cls-5" d="M14.26,32.64c0-.17,0-.29.28-.36a1.11,1.11,0,0,1,.65.15,1.94,1.94,0,0,0,1.14.2c.16-.05.24-.08.26-.13s0-.13,0-.29a2.4,2.4,0,0,0-.38-.72l-.05-.06,0-.06a2.32,2.32,0,0,0,.26-1.63c0-.17-.08-.32-.14-.35s-.16,0-.27,0a1.12,1.12,0,0,0-.66.52l0,0a.79.79,0,0,1-.47.44.41.41,0,0,1-.52-.3,1.06,1.06,0,0,1,.14-.64.82.82,0,0,0,.13-.53.14.14,0,0,0,0-.07.39.39,0,0,0-.16,0,2.79,2.79,0,0,0-.37.14l-.16.1V29c0-.2.07-.79,0-.87a.27.27,0,0,0-.13,0,1.28,1.28,0,0,0-.3.16l-.09.08-.06-.11a1,1,0,0,0-.65-.5c.07.24,1.1,4.23,1.1,4.23v0c0,1.15.23,1.56,1.13,2l.42.21c.25-.11.43-.18.58-.23-1.05-.4-1.63-.87-1.63-1.34Z"/><path class="cls-5" d="M51.68,28.23l-.06.11-.09-.08a1.11,1.11,0,0,0-.3-.16.26.26,0,0,0-.13,0,2.45,2.45,0,0,0,0,.87v.19l-.16-.1a2.35,2.35,0,0,0-.37-.14.39.39,0,0,0-.16,0l0,.07a.82.82,0,0,0,.13.53.93.93,0,0,1,.14.64.4.4,0,0,1-.52.3.79.79,0,0,1-.47-.44l0,0a1.1,1.1,0,0,0-.65-.52c-.12,0-.24-.06-.28,0s-.1.18-.14.35a2.32,2.32,0,0,0,.26,1.63l0,.06,0,.06a2.26,2.26,0,0,0-.39.72c-.08.31-.06.34.24.42a1.93,1.93,0,0,0,1.14-.2,1.14,1.14,0,0,1,.66-.15.31.31,0,0,1,.27.36c0,.5-.64,1-1.81,1.41,0,0-.51.16-1,.36a3.65,3.65,0,0,0-1.39.86l-.07.09-.08-.09a3.18,3.18,0,0,0-1.29-.82l-.72.32c.4.18.64.33.64.56s-.29.5-.87.5-.87-.17-.87-.5.34-.44.81-.65l.76-.35.5-.26a5,5,0,0,0,1.08-.83l.07-.08.07.08a4.53,4.53,0,0,0,1.08.83l.23.11c.24-.1.43-.16.57-.21a4.26,4.26,0,0,1-2-1.39,4.47,4.47,0,0,1-2,1.41c-.24.1-.79.29-1.22.47a3.94,3.94,0,0,0-1.4,1l-.08.1-.08-.1a3.7,3.7,0,0,0-1.34-1l-.63.29c.37.18.61.33.61.56s-.3.5-.89.5-.89-.17-.89-.5.33-.43.87-.66l.69-.31.5-.27a3.89,3.89,0,0,0,1.08-.85l.07-.09.08.09a3.73,3.73,0,0,0,1.07.85l.28.15c.27-.12.48-.19.63-.25-1.07-.4-1.66-.88-1.66-1.35a.38.38,0,0,1,.38-.4,1.17,1.17,0,0,1,.59.31,2,2,0,0,0,1.06.48c.31,0,.33,0,.33-.34a2.27,2.27,0,0,0-.19-.8l0-.06,0,0a2.33,2.33,0,0,0,.67-1.51c0-.42,0-.42-.33-.42a1.15,1.15,0,0,0-.76.33l0,0a.74.74,0,0,1-.56.3.4.4,0,0,1-.43-.41,1,1,0,0,1,.29-.59.8.8,0,0,0,.26-.48c0-.08,0-.1-.17-.1a1.74,1.74,0,0,0-.39,0l-.18.05.06-.18c.06-.19.26-.75.19-.84s0,0-.12,0a.94.94,0,0,0-.34.08l-.11.05,0-.12a1.12,1.12,0,0,0-.61-.68,1.14,1.14,0,0,0-.6.68l0,.12-.11-.05a.94.94,0,0,0-.33-.08c-.1,0-.12,0-.13,0a2.4,2.4,0,0,0,.2.84l.06.18L40.68,29a1.9,1.9,0,0,0-.4,0c-.17,0-.17,0-.17.1a.85.85,0,0,0,.26.48,1,1,0,0,1,.29.59.4.4,0,0,1-.43.41.74.74,0,0,1-.56-.3l0,0a1.15,1.15,0,0,0-.76-.33c-.33,0-.33,0-.33.42a2.39,2.39,0,0,0,.67,1.51l0,0,0,.06a2.27,2.27,0,0,0-.19.8c0,.32,0,.34.33.34a2,2,0,0,0,1.06-.48,1.21,1.21,0,0,1,.59-.31.38.38,0,0,1,.38.4c0,.49-.62,1-1.75,1.39-.19.07-.67.23-1.06.38a4,4,0,0,0-1.36.85l-.08.09-.07-.09a3.42,3.42,0,0,0-1.3-.82l-.72.32c.41.19.65.34.65.57s-.28.5-.89.5-.88-.16-.88-.5.34-.45.82-.67l.76-.33c.21-.1.48-.26.48-.26a4.8,4.8,0,0,0,1.08-.83l.07-.07.07.06a5,5,0,0,0,1.08.84l.24.12c.25-.11.43-.16.57-.21a4.31,4.31,0,0,1-2-1.4,4.37,4.37,0,0,1-2,1.41c-.09,0-.75.25-1.22.45a3.49,3.49,0,0,0-1.41,1l-.08.1-.08-.1a3.87,3.87,0,0,0-1.3-.92l-.63.3c.38.18.61.33.61.56s-.15.5-.89.5-.89-.27-.89-.5.33-.43.87-.66l.72-.32c.23-.11.48-.26.48-.26a3.87,3.87,0,0,0,1.07-.85l.08-.09.07.09a3.87,3.87,0,0,0,1.07.85l.24.14c.28-.12.49-.2.65-.25-1.06-.4-1.64-.87-1.64-1.34a.38.38,0,0,1,.38-.4,1.23,1.23,0,0,1,.6.31,1.92,1.92,0,0,0,1.05.48c.32,0,.34,0,.34-.34a2.27,2.27,0,0,0-.19-.8l0-.06.05,0a2.37,2.37,0,0,0,.66-1.51c0-.42,0-.42-.32-.42a1.2,1.2,0,0,0-.77.33l0,0a.76.76,0,0,1-.56.3.41.41,0,0,1-.44-.41,1,1,0,0,1,.3-.59.85.85,0,0,0,.26-.48c0-.08,0-.1-.17-.1a1.83,1.83,0,0,0-.4,0l-.18.05.06-.18a2.4,2.4,0,0,0,.2-.84s0,0-.13,0a.9.9,0,0,0-.33.08l-.11.05,0-.12a1.14,1.14,0,0,0-.6-.68,1.12,1.12,0,0,0-.61.68l0,.12-.1-.05a1,1,0,0,0-.34-.08c-.09,0-.12,0-.13,0s.14.65.2.84l.06.18L31.37,29a1.75,1.75,0,0,0-.4,0c-.16,0-.16,0-.16.1a.83.83,0,0,0,.25.48,1,1,0,0,1,.3.59.4.4,0,0,1-.43.41.76.76,0,0,1-.57-.3l0,0a1.17,1.17,0,0,0-.77-.33c-.32,0-.32,0-.32.42a2.37,2.37,0,0,0,.66,1.51l.05,0,0,.06a2.27,2.27,0,0,0-.19.8c0,.32,0,.34.34.34a1.92,1.92,0,0,0,1.05-.48,1.23,1.23,0,0,1,.6-.31.38.38,0,0,1,.38.4c0,.51-.69,1-1.94,1.45,0,0-.56.19-.87.32a3.56,3.56,0,0,0-1.38.87l-.08.09-.07-.09a3.28,3.28,0,0,0-1.31-.84c-.17.09-.35.17-.71.33.4.18.64.33.64.56s-.29.5-.88.5-.87-.17-.87-.5.33-.45.81-.66c0,0,.54-.23.77-.35s.49-.25.49-.25a5.29,5.29,0,0,0,1.08-.83l.07-.07.07.06a4.79,4.79,0,0,0,1.08.84l.22.12L29.8,34a4.28,4.28,0,0,1-2-1.39,4.37,4.37,0,0,1-2,1.41c-.3.12-.63.21-1.23.46a3.5,3.5,0,0,0-1.4.95l-.08.09-.08-.09a3.9,3.9,0,0,0-1.33-.92l-.63.29c.37.18.6.33.6.56s-.28.5-.88.5-.89-.16-.89-.5.33-.43.87-.66l.69-.3c.15-.07.51-.28.51-.28a3.73,3.73,0,0,0,1.07-.85l.08-.09.08.09a3.73,3.73,0,0,0,1.07.85l.25.14c.28-.12.49-.19.64-.24-1.06-.4-1.64-.88-1.64-1.35a.38.38,0,0,1,.38-.4,1.21,1.21,0,0,1,.59.31,2,2,0,0,0,1.06.48c.31,0,.33,0,.33-.34a2.27,2.27,0,0,0-.19-.8l0-.06.05,0a2.39,2.39,0,0,0,.67-1.51c0-.42,0-.42-.33-.42a1.15,1.15,0,0,0-.76.33l0,0a.74.74,0,0,1-.56.3.4.4,0,0,1-.43-.41,1,1,0,0,1,.29-.59.85.85,0,0,0,.26-.48c0-.08,0-.1-.17-.1a1.74,1.74,0,0,0-.39,0L24.1,29l.07-.18c.06-.19.26-.75.19-.84s0,0-.13,0a.94.94,0,0,0-.33.08l-.11.05,0-.12a1.14,1.14,0,0,0-.6-.68,1.14,1.14,0,0,0-.6.68l0,.12-.11-.05a.94.94,0,0,0-.33-.08C22,28,22,28,22,28s.13.65.19.84l.07.18L22,29a1.74,1.74,0,0,0-.39,0c-.17,0-.17,0-.17.1a.85.85,0,0,0,.26.48,1,1,0,0,1,.29.59.4.4,0,0,1-.43.41.74.74,0,0,1-.56-.3l0,0a1.15,1.15,0,0,0-.76-.33c-.33,0-.33,0-.33.42a2.39,2.39,0,0,0,.67,1.51l.05,0,0,.06a2.27,2.27,0,0,0-.19.8c0,.32,0,.34.33.34a2,2,0,0,0,1.06-.48,1.21,1.21,0,0,1,.59-.31.38.38,0,0,1,.38.4c0,.49-.62,1-1.75,1.39-.19.07-.39.12-.91.32l-.16.07a3.41,3.41,0,0,0-1.35.84l-.07.09-.08-.09a3.44,3.44,0,0,0-1.32-.83l-.68.31c.41.2.64.37.64.59s-.29.5-.92.5-.88-.26-.88-.5.34-.48.86-.7l.73-.31.47-.25a4.53,4.53,0,0,0,1.08-.83l.07-.08.07.08a5.29,5.29,0,0,0,1.08.83l.25.13.58-.22a4.4,4.4,0,0,1-2-1.4A4.46,4.46,0,0,1,16.41,34c-.05,0-.62.21-1.06.39-.66.3-.92.59-.92,1a.91.91,0,0,0,.93.93H49.64a.9.9,0,0,0,.92-.93c0-.45-.25-.74-.88-1l-.62.28c.4.18.66.34.66.61s-.28.5-.88.5-.93-.17-.93-.5.32-.45.86-.7l.78-.36L50.1,34c.9-.46,1.13-.87,1.13-2v0l1.1-4.23a1,1,0,0,0-.65.5Z"/><path class="cls-4" d="M18,32a.51.51,0,1,0,.5-.51A.51.51,0,0,0,18,32Z"/><path class="cls-4" d="M27.34,32a.51.51,0,1,0,.51-.51.51.51,0,0,0-.51.51Z"/><path class="cls-4" d="M36.65,32a.51.51,0,1,0,.5-.51.51.51,0,0,0-.5.51Z"/><path class="cls-4" d="M46,32a.5.5,0,1,0,.5-.51A.5.5,0,0,0,46,32Z"/><polygon class="cls-4" points="9.6 11.81 9.6 0.21 8.17 0.21 8.17 5.25 1.45 5.25 1.45 0.21 0.02 0.21 0.02 11.81 1.45 11.81 1.45 6.3 8.17 6.3 8.17 11.81 9.6 11.81 9.6 11.81"/><polygon class="cls-4" points="21.16 11.81 21.16 10.77 14.87 10.77 14.87 6.28 20.58 6.28 20.58 5.25 14.87 5.25 14.87 1.25 20.93 1.25 20.93 0.21 13.44 0.21 13.44 11.81 21.16 11.81 21.16 11.81"/><path class="cls-4" d="M31.13,8.78c0-2.15-1.69-2.8-3.52-3.35s-2.56-1.29-2.56-2.35c0-1.55,1.36-2,2.63-2a3.42,3.42,0,0,1,2.56,1l.6-1.08A4.6,4.6,0,0,0,27.68,0c-2.12,0-4.13,1.11-4.13,3.18s1.33,2.61,3,3.15c2.09.66,3,1.18,3,2.56C29.58,10.45,28.19,11,27,11A4,4,0,0,1,24,9.69l-.62,1.09c.48.68,2.19,1.24,3.54,1.24,2.18,0,4.2-1,4.2-3.24Z"/><path class="cls-4" d="M40.33,8.78c0-2.15-1.68-2.8-3.52-3.35s-2.55-1.29-2.55-2.35c0-1.55,1.35-2,2.63-2a3.4,3.4,0,0,1,2.55,1L40,.94A4.57,4.57,0,0,0,36.89,0c-2.13,0-4.14,1.11-4.14,3.18s1.33,2.61,3,3.15c2.09.66,3,1.18,3,2.56,0,1.56-1.39,2.08-2.63,2.08a4,4,0,0,1-2.94-1.28l-.61,1.09c.48.68,2.18,1.24,3.53,1.24,2.19,0,4.2-1,4.2-3.24Z"/><polygon class="cls-4" points="51.26 11.81 51.26 10.77 44.98 10.77 44.98 6.28 50.68 6.28 50.68 5.25 44.98 5.25 44.98 1.25 51.03 1.25 51.03 0.21 43.55 0.21 43.55 11.81 51.26 11.81 51.26 11.81"/><polygon class="cls-4" points="63.98 11.81 63.98 0.21 62.59 0.21 62.59 10.28 56.32 0.21 54.42 0.21 54.42 11.81 55.81 11.81 55.81 1.74 62.09 11.81 63.98 11.81 63.98 11.81"/></g></g></svg>
