<?xml version="1.0" encoding="utf-8"?>
<!-- Generator: Adobe Illustrator 24.0.3, SVG Export Plug-In . SVG Version: 6.00 Build 0)  -->
<svg version="1.1" id="Ebene_1" xmlns="http://www.w3.org/2000/svg" xmlns:xlink="http://www.w3.org/1999/xlink" x="0px" y="0px"
	 viewBox="0 0 74.1 74.1" style="enable-background:new 0 0 74.1 74.1;" xml:space="preserve">
<style type="text/css">
	.st0{fill:#1C54A0;}
</style>
<path class="st0" d="M24.5,20.9c1.4,1.5,3.1-1.6,2.2-2.4C26.4,18.3,23.5,19.9,24.5,20.9z"/>
<path class="st0" d="M31.4,55.7c0-1.9,0.6-3.3,3.7-4.6l-0.2-6.1c-4.1-0.8-8.6-2.2-8.6-7.8c0-6.4,4.4-8.4,8.1-9l-0.3-9.9
	c-1.8,0.6-3.5,1.8-5.5,3.8c-4.9,4.9-10.8-1.8-1.6-5.9c3.1-1.4,5.3-2.1,7-2.5l-0.2-6.6C18.6,8.8,6.9,21.6,6.9,37.1
	c0,16.2,12.7,29.3,28.7,30.1l-0.2-7.3C33.5,59.3,31.4,58.1,31.4,55.7z"/>
<path class="st0" d="M34.5,55.9c0,0.6,0.3,1,0.8,1.3l-0.1-2.8C34.7,54.7,34.5,55.2,34.5,55.9z M40.3,7.2l-0.2,6.2
	c7.2,0.6,10.1,3.8,10.1,9.9c0,2.4-2.4,7.2-7.7,8.8c-0.9,0.3-2,0.4-3.1,0.5l-0.3,9.7c2.2,0.5,5.1,1.6,5.1,5.3c0,3.9-3.6,5-4.8,5.3
	c-0.2,0-0.4,0.1-0.7,0.2l-0.2,5.5c2.2,0.7,2.2,1.1,2.2,1.4c0,0.8-1.4,0.8-2.3,0.8l-0.2,6.6c16-0.8,28.6-14,28.6-30.1
	C67.2,21.6,55.4,8.8,40.3,7.2z"/>
<path class="st0" d="M41.1,47.7c0-0.9-0.8-1.4-2-1.8L39,49.7C40.4,49.3,41.1,48.8,41.1,47.7z M46,23c0-4.6-3.4-5.3-6-5.3L39.7,28
	C44.3,27.7,46,25,46,23z M30.2,36.7c0,2.4,2.2,3.4,4.6,4.2l-0.2-8.2C32.1,33,30.2,33.8,30.2,36.7z"/>
<path class="st0" d="M37.1,0C16.6,0,0,16.6,0,37.1s16.6,37.1,37.1,37.1c20.5,0,37.1-16.6,37.1-37.1C74.1,16.6,57.5,0,37.1,0z
	 M36.9,70.2C18.7,70.2,4,55.5,4,37.4S18.7,4.5,36.9,4.5s32.9,14.7,32.9,32.8C69.7,55.5,55,70.2,36.9,70.2z"/>
<path class="st0" d="M36.1,41.4l0.1,3.8l0.2,5.3c0.1,0,0.3-0.1,0.4-0.1c0.3-0.1,0.6-0.2,0.9-0.3l0.1-4.6L38,42l0.3-9.4
	c-0.8,0-1.6,0-2.4,0.1C35.9,32.7,36.1,41.4,36.1,41.4z M36.6,57.8l0.1,2.5l0.2,7h0.3l0.2-6.8l0.1-2.3l0.2-4.8
	c-0.4,0.1-0.8,0.2-1.1,0.4L36.6,57.8z M38.7,17.6l0.1-4.4L39,7C38.4,7,37.7,7,37,7c-0.7,0-1.3,0-2,0.1l0.2,6.4l0.1,4.5l0.3,10.1
	c1-0.1,2-0.1,2.7-0.1"/>
</svg>
